<svg width="15" height="14" viewBox="0 0 15 14" fill="none" xmlns="http://www.w3.org/2000/svg">
<path d="M1.85352 0.146484L1.14648 0.853516L3.96875 3.67578C1.24543 4.86639 0.199219 7.12192 0.199219 7.30078L0.0996094 7.5L0.199219 7.69922C0.199219 7.89922 2.1 12 7.5 12C9.09937 12 10.4045 11.6502 11.4238 11.1309L14.1465 13.8535L14.8535 13.1465L1.85352 0.146484ZM7.5 3C7 3 6.59922 2.99961 6.19922 3.09961L7.09961 4H7.5C9.4 4 11 5.6 11 7.5V7.90039L11.9004 8.80078C11.9004 8.30078 12 7.9 12 7.5C12 6.5 11.6996 5.60039 11.0996 4.90039C12.6996 5.80039 13.5008 7 13.8008 7.5C13.6008 7.8 13.2004 8.60078 12.4004 9.30078L13.0996 10C14.2996 8.9 14.8004 7.79922 14.9004 7.69922L15 7.5L14.9004 7.30078C14.8004 7.10078 12.9 3 7.5 3ZM5.16602 4.87305L6.60938 6.31641C6.24601 6.5956 6 7.02858 6 7.5C6 8.3 6.7 9 7.5 9C7.97142 9 8.4044 8.75399 8.68359 8.39062L10.127 9.83398C9.4715 10.5549 8.54161 11 7.5 11C5.6 11 4 9.4 4 7.5C4 6.45839 4.44507 5.5285 5.16602 4.87305ZM3.90039 4.90039C3.30039 5.60039 3 6.5 3 7.5C3 8.5 3.30039 9.39961 3.90039 10.0996C2.30039 9.29961 1.39922 8 1.19922 7.5C1.39922 7 2.30039 5.70039 3.90039 4.90039Z" fill="white"/>
</svg>
