<svg width="16" height="9" viewBox="0 0 16 9" fill="none" xmlns="http://www.w3.org/2000/svg">
<path d="M7.5 0C2.10547 0 0.046875 4.28906 0.046875 4.28906L-0.0546875 4.5L0.046875 4.71094C0.046875 4.71094 2.10547 9 7.5 9C12.8945 9 14.9531 4.71094 14.9531 4.71094L15.0508 4.5L14.9531 4.28906C14.9531 4.28906 12.8945 0 7.5 0ZM7.5 1C9.4375 1 11 2.5625 11 4.5C11 6.4375 9.4375 8 7.5 8C5.5625 8 4 6.4375 4 4.5C4 2.5625 5.5625 1 7.5 1ZM3.94141 1.77734C3.35938 2.53516 3 3.47266 3 4.5C3 5.52734 3.35938 6.46484 3.94141 7.22266C2.02344 6.26953 1.24219 4.75391 1.11719 4.5C1.24219 4.24609 2.02344 2.73047 3.94141 1.77734ZM11.0586 1.77734C12.9766 2.73047 13.7578 4.24609 13.8828 4.5C13.7578 4.75391 12.9766 6.26953 11.0586 7.22266C11.6406 6.46484 12 5.52734 12 4.5C12 3.47266 11.6406 2.53516 11.0586 1.77734ZM7.5 3C6.67188 3 6 3.67188 6 4.5C6 5.32812 6.67188 6 7.5 6C8.32812 6 9 5.32812 9 4.5C9 3.67188 8.32812 3 7.5 3Z" fill="white"/>
</svg>
