<svg width="128" height="128" viewBox="0 0 128 128" fill="none" xmlns="http://www.w3.org/2000/svg">
<path d="M58.9714 16L56.6557 24.4522L48.3193 22.2523L54.3401 28.6203L48.3193 34.8726L56.6557 32.6728L58.9714 41.2407L61.287 32.6728L69.6234 34.8726L63.6027 28.6203L69.6234 22.2523L61.287 24.4522L58.9714 16ZM25.5101 32.4412L23.6576 39.1566L16.9421 37.4199L21.805 42.3985L16.9421 47.3772L23.6576 45.6404L25.5101 52.3559L27.4784 45.6404L34.1938 47.3772L29.3309 42.3985L34.1938 37.4199L27.4784 39.1566L25.5101 32.4412ZM83.4016 42.3985C94.1984 47.1312 101.695 57.9569 101.695 70.5338C101.695 87.5105 88.0474 101.216 71.1286 101.216C70.0142 101.216 68.8564 101.101 67.7709 100.985H52.3717C58.6674 107.411 67.5249 111.405 77.2651 111.405C96.4561 111.405 112 95.9192 112 76.6703C112 59.5344 99.6402 45.3076 83.4016 42.3985ZM19.3736 60.2291C17.3329 60.4173 15.8277 62.2408 16.0159 64.2815C16.204 66.3222 18.0276 67.8274 20.0683 67.6392H68.234C69.5655 67.6537 70.8102 66.959 71.4904 65.8012C72.1562 64.6433 72.1562 63.225 71.4904 62.0672C70.8102 60.9093 69.5655 60.2146 68.234 60.2291H20.0683C19.9525 60.2291 19.8367 60.2291 19.7209 60.2291C19.6052 60.2291 19.4894 60.2291 19.3736 60.2291ZM30.4888 75.0493C28.4481 75.2375 26.9429 77.0611 27.1311 79.1017C27.3192 81.1424 29.1428 82.6476 31.1835 82.4594H79.3492C80.6807 82.4739 81.9254 81.7792 82.6056 80.6214C83.2713 79.4636 83.2713 78.0452 82.6056 76.8874C81.9254 75.7296 80.6807 75.0349 79.3492 75.0493H31.1835C31.0677 75.0493 30.9519 75.0493 30.8361 75.0493C30.7203 75.0493 30.6045 75.0493 30.4888 75.0493ZM19.3736 89.8696C17.3329 90.0577 15.8277 91.8813 16.0159 93.922C16.204 95.9626 18.0276 97.4678 20.0683 97.2797H68.234C69.5655 97.2941 70.8102 96.5994 71.4904 95.4416C72.1562 94.2838 72.1562 92.8654 71.4904 91.7076C70.8102 90.5498 69.5655 89.8551 68.234 89.8696H20.0683C19.9525 89.8696 19.8367 89.8696 19.7209 89.8696C19.6052 89.8696 19.4894 89.8696 19.3736 89.8696Z" fill="white"/>
</svg>
