<svg width="150" height="150" viewBox="0 0 150 150" fill="none" xmlns="http://www.w3.org/2000/svg">
<path fill-rule="evenodd" clip-rule="evenodd" d="M75 96.7272L75.1203 96.727H115.341L115.364 96.727C133.94 96.727 149 81.6675 149 63.0907C149 44.5138 133.94 29.4544 115.364 29.4544C109.711 29.4544 103.984 27.712 99.494 24.2788C92.7013 19.0853 84.211 16 75 16C59.9981 16 46.9077 24.1842 39.9502 36.3314C37.5735 40.4809 32.6911 42.9092 27.9091 42.9092C13.0476 42.9092 1 54.9568 1 69.8183C1 84.6797 13.0476 96.7273 27.9091 96.7273C27.9544 96.7273 27.9997 96.7272 28.0449 96.727H74.8797L75 96.7272ZM1 113C1 108.582 4.58172 105 9 105H107C111.418 105 115 108.582 115 113C115 117.418 111.418 121 107 121H9C4.58172 121 1 117.418 1 113ZM35 137C35 132.582 38.5817 129 43 129H141C145.418 129 149 132.582 149 137C149 141.418 145.418 145 141 145H43C38.5817 145 35 141.418 35 137ZM123.498 43.8218C123.778 42.8627 125.137 42.8627 125.417 43.8218L127.999 52.6501C128.095 52.9775 128.351 53.2335 128.678 53.3292L137.507 55.9111C138.466 56.1915 138.466 57.5502 137.507 57.8307L128.678 60.4125C128.351 60.5082 128.095 60.7642 127.999 61.0916L125.417 69.9199C125.137 70.879 123.778 70.879 123.498 69.9199L120.916 61.0916C120.82 60.7642 120.564 60.5082 120.237 60.4125L111.409 57.8307C110.449 57.5502 110.449 56.1915 111.409 55.9111L120.237 53.3292C120.564 53.2335 120.82 52.9775 120.916 52.6501L123.498 43.8218ZM94.7967 60.1528C94.5163 59.1937 93.1576 59.1937 92.8772 60.1528L91.6811 64.2428C91.5853 64.5701 91.3293 64.8261 91.0019 64.9219L86.912 66.118C85.9529 66.3984 85.9529 67.7571 86.912 68.0376L91.0019 69.2336C91.3293 69.3294 91.5853 69.5854 91.6811 69.9128L92.8772 74.0027C93.1576 74.9618 94.5163 74.9618 94.7967 74.0027L95.9928 69.9128C96.0886 69.5854 96.3446 69.3294 96.6719 69.2336L100.762 68.0376C101.721 67.7571 101.721 66.3984 100.762 66.118L96.6719 64.9219C96.3446 64.8261 96.0886 64.5701 95.9928 64.2428L94.7967 60.1528Z" fill="white"/>
</svg>
