<svg width="296" height="128" viewBox="0 0 296 128" fill="none" xmlns="http://www.w3.org/2000/svg">
<g filter="url(#filter0_b_449_70)">
<path d="M57.2952 0L54.2076 11.2695L43.0925 8.33638L51.1201 16.8271L43.0925 25.1635L54.2076 22.2303L57.2952 33.6543L60.3827 22.2303L71.4979 25.1635L63.4703 16.8271L71.4979 8.33638L60.3827 11.2695L57.2952 0ZM12.6801 21.9216L10.2101 30.8755L1.2562 28.5598L7.74004 35.198L1.2562 41.8363L10.2101 39.5206L12.6801 48.4745L15.3045 39.5206L24.2584 41.8363L17.7746 35.198L24.2584 28.5598L15.3045 30.8755L12.6801 21.9216ZM89.8688 35.198C104.264 41.5082 114.26 55.9425 114.26 72.7117C114.26 95.3473 96.0632 113.622 73.5048 113.622C72.0189 113.622 70.4751 113.467 69.0278 113.313H48.4957C56.8899 121.881 68.6998 127.207 81.6868 127.207C107.275 127.207 128 106.559 128 80.8937C128 58.0459 111.52 39.0768 89.8688 35.198ZM4.49812 58.9721C1.77722 59.223 -0.229684 61.6545 0.0211776 64.3754C0.272041 67.0963 2.70349 69.1032 5.42438 68.8523H69.6454C71.4207 68.8716 73.0803 67.9453 73.9872 66.4016C74.8749 64.8578 74.8749 62.9667 73.9872 61.4229C73.0803 59.8791 71.4207 58.9528 69.6454 58.9721H5.42438C5.27001 58.9721 5.11563 58.9721 4.96125 58.9721C4.80688 58.9721 4.6525 58.9721 4.49812 58.9721ZM19.3183 78.7324C16.5974 78.9833 14.5905 81.4148 14.8414 84.1357C15.0923 86.8566 17.5237 88.8635 20.2446 88.6126H84.4656C86.2409 88.6319 87.9005 87.7056 88.8075 86.1619C89.6951 84.6181 89.6951 82.727 88.8075 81.1832C87.9005 79.6394 86.2409 78.7131 84.4656 78.7324H20.2446C20.0902 78.7324 19.9359 78.7324 19.7815 78.7324C19.6271 78.7324 19.4727 78.7324 19.3183 78.7324ZM4.49812 98.4927C1.77722 98.7436 -0.229684 101.175 0.0211776 103.896C0.272041 106.617 2.70349 108.624 5.42438 108.373H69.6454C71.4207 108.392 73.0803 107.466 73.9872 105.922C74.8749 104.378 74.8749 102.487 73.9872 100.943C73.0803 99.3997 71.4207 98.4734 69.6454 98.4927H5.42438C5.27001 98.4927 5.11563 98.4927 4.96125 98.4927C4.80688 98.4927 4.6525 98.4927 4.49812 98.4927Z" fill="white"/>
</g>
<g filter="url(#filter1_b_449_70)">
<path d="M160.32 87.464V88.04H165.744C166.096 88.04 166.4 88.168 166.656 88.424C166.912 88.68 167.04 88.984 167.04 89.336V95.144C167.04 95.496 166.912 95.8 166.656 96.056C166.4 96.312 166.096 96.44 165.744 96.44H160.32V111.704C160.32 112.056 160.192 112.36 159.936 112.616C159.68 112.872 159.376 113 159.024 113H150.624C150.272 113 149.968 112.872 149.712 112.616C149.456 112.36 149.328 112.056 149.328 111.704V96.44H146.016C145.664 96.44 145.36 96.312 145.104 96.056C144.848 95.8 144.72 95.496 144.72 95.144V89.336C144.72 88.984 144.848 88.68 145.104 88.424C145.36 88.168 145.664 88.04 146.016 88.04H149.328V87.224C149.328 83.576 150.432 81.048 152.64 79.64C154.848 78.2 157.904 77.48 161.808 77.48H166.272C166.624 77.48 166.928 77.608 167.184 77.864C167.44 78.12 167.568 78.424 167.568 78.776V84.584C167.568 84.936 167.44 85.24 167.184 85.496C166.928 85.752 166.624 85.88 166.272 85.88H162.384C161.008 85.88 160.32 86.408 160.32 87.464ZM170.196 102.152V98.888C170.196 95.24 171.492 92.44 174.084 90.488C176.676 88.536 180.02 87.56 184.116 87.56C188.212 87.56 191.556 88.536 194.148 90.488C196.74 92.44 198.036 95.24 198.036 98.888V102.152C198.036 105.832 196.788 108.648 194.292 110.6C191.796 112.52 188.404 113.48 184.116 113.48C179.828 113.48 176.436 112.52 173.94 110.6C171.444 108.648 170.196 105.832 170.196 102.152ZM186.276 102.536V98.504C186.276 97.288 186.116 96.44 185.796 95.96C185.476 95.48 184.916 95.24 184.116 95.24C183.316 95.24 182.756 95.48 182.436 95.96C182.116 96.44 181.956 97.288 181.956 98.504V102.536C181.956 103.816 182.116 104.68 182.436 105.128C182.756 105.576 183.316 105.8 184.116 105.8C184.916 105.8 185.476 105.56 185.796 105.08C186.116 104.6 186.276 103.752 186.276 102.536ZM201.414 101.048V98.6C201.414 95.016 202.374 92.28 204.294 90.392C206.214 88.504 208.662 87.56 211.638 87.56C214.614 87.56 216.966 88.648 218.694 90.824V89.336C218.694 88.984 218.822 88.68 219.078 88.424C219.334 88.168 219.638 88.04 219.99 88.04H228.39C228.742 88.04 229.046 88.168 229.302 88.424C229.558 88.68 229.686 88.984 229.686 89.336L229.734 112.184C229.734 116.024 228.486 118.872 225.99 120.728C223.494 122.616 220.214 123.56 216.15 123.56C213.622 123.56 211.366 123.208 209.382 122.504C207.398 121.832 205.91 121 204.918 120.008C202.902 118.024 201.894 116.344 201.894 114.968C201.894 114.616 202.022 114.312 202.278 114.056C202.534 113.8 202.838 113.672 203.19 113.672H212.55C213.126 113.672 213.59 114.024 213.942 114.728C214.326 115.464 214.982 115.832 215.91 115.832C217.286 115.832 217.974 114.968 217.974 113.24V109.832C216.406 111.208 214.182 111.896 211.302 111.896C208.454 111.896 206.086 111.032 204.198 109.304C202.342 107.576 201.414 104.824 201.414 101.048ZM215.574 103.544C217.078 103.544 217.878 102.744 217.974 101.144V98.552C217.878 96.952 217.078 96.152 215.574 96.152C213.974 96.152 213.174 97.08 213.174 98.936V100.76C213.174 102.616 213.974 103.544 215.574 103.544ZM233.805 101.048V98.6C233.805 95.016 234.765 92.28 236.685 90.392C238.605 88.504 241.053 87.56 244.029 87.56C247.005 87.56 249.357 88.648 251.085 90.824V89.336C251.085 88.984 251.213 88.68 251.469 88.424C251.725 88.168 252.029 88.04 252.381 88.04H260.781C261.133 88.04 261.437 88.168 261.693 88.424C261.949 88.68 262.077 88.984 262.077 89.336L262.125 112.184C262.125 116.024 260.877 118.872 258.381 120.728C255.885 122.616 252.605 123.56 248.541 123.56C246.013 123.56 243.757 123.208 241.773 122.504C239.789 121.832 238.301 121 237.309 120.008C235.293 118.024 234.285 116.344 234.285 114.968C234.285 114.616 234.413 114.312 234.669 114.056C234.925 113.8 235.229 113.672 235.581 113.672H244.941C245.517 113.672 245.981 114.024 246.333 114.728C246.717 115.464 247.373 115.832 248.301 115.832C249.677 115.832 250.365 114.968 250.365 113.24V109.832C248.797 111.208 246.573 111.896 243.693 111.896C240.845 111.896 238.477 111.032 236.589 109.304C234.733 107.576 233.805 104.824 233.805 101.048ZM247.965 103.544C249.469 103.544 250.269 102.744 250.365 101.144V98.552C250.269 96.952 249.469 96.152 247.965 96.152C246.365 96.152 245.565 97.08 245.565 98.936V100.76C245.565 102.616 246.365 103.544 247.965 103.544ZM266.436 88.04H274.548C275.284 88.04 275.796 88.424 276.084 89.192L280.02 100.136L284.1 89.192C284.42 88.424 284.964 88.04 285.732 88.04H293.748C294.036 88.04 294.292 88.152 294.516 88.376C294.74 88.568 294.852 88.776 294.852 89C294.852 89.224 294.836 89.4 294.804 89.528L281.268 120.968C280.948 121.736 280.388 122.12 279.588 122.12H271.716C271.428 122.12 271.172 122.024 270.948 121.832C270.756 121.64 270.66 121.4 270.66 121.112C270.66 120.856 270.676 120.696 270.708 120.632L274.548 111.416L265.284 89.528C265.252 89.432 265.236 89.32 265.236 89.192C265.364 88.424 265.764 88.04 266.436 88.04Z" fill="white"/>
</g>
<defs>
<filter id="filter0_b_449_70" x="-128" y="-128" width="384" height="383.207" filterUnits="userSpaceOnUse" color-interpolation-filters="sRGB">
<feFlood flood-opacity="0" result="BackgroundImageFix"/>
<feGaussianBlur in="BackgroundImageFix" stdDeviation="64"/>
<feComposite in2="SourceAlpha" operator="in" result="effect1_backgroundBlur_449_70"/>
<feBlend mode="normal" in="SourceGraphic" in2="effect1_backgroundBlur_449_70" result="shape"/>
</filter>
<filter id="filter1_b_449_70" x="16.72" y="-50.52" width="406.132" height="302.08" filterUnits="userSpaceOnUse" color-interpolation-filters="sRGB">
<feFlood flood-opacity="0" result="BackgroundImageFix"/>
<feGaussianBlur in="BackgroundImageFix" stdDeviation="64"/>
<feComposite in2="SourceAlpha" operator="in" result="effect1_backgroundBlur_449_70"/>
<feBlend mode="normal" in="SourceGraphic" in2="effect1_backgroundBlur_449_70" result="shape"/>
</filter>
</defs>
</svg>
