<svg width="360" height="150" viewBox="0 0 360 150" fill="none" xmlns="http://www.w3.org/2000/svg">
<path fill-rule="evenodd" clip-rule="evenodd" d="M75 96.7272L75.1203 96.727H115.341L115.364 96.727C133.94 96.727 149 81.6675 149 63.0907C149 44.5138 133.94 29.4544 115.364 29.4544C109.711 29.4544 103.984 27.712 99.494 24.2788C92.7013 19.0853 84.211 16 75 16C59.9981 16 46.9077 24.1842 39.9502 36.3314C37.5735 40.4809 32.6911 42.9092 27.9091 42.9092C13.0476 42.9092 1 54.9568 1 69.8183C1 84.6797 13.0476 96.7273 27.9091 96.7273C27.9544 96.7273 27.9997 96.7272 28.0449 96.727H74.8797L75 96.7272ZM1 113C1 108.582 4.58172 105 9 105H107C111.418 105 115 108.582 115 113C115 117.418 111.418 121 107 121H9C4.58172 121 1 117.418 1 113ZM35 137C35 132.582 38.5817 129 43 129H141C145.418 129 149 132.582 149 137C149 141.418 145.418 145 141 145H43C38.5817 145 35 141.418 35 137ZM123.498 43.8218C123.778 42.8627 125.137 42.8627 125.417 43.8218L127.999 52.6501C128.095 52.9775 128.351 53.2335 128.678 53.3292L137.507 55.9111C138.466 56.1915 138.466 57.5502 137.507 57.8307L128.678 60.4125C128.351 60.5082 128.095 60.7642 127.999 61.0916L125.417 69.9199C125.137 70.879 123.778 70.879 123.498 69.9199L120.916 61.0916C120.82 60.7642 120.564 60.5082 120.237 60.4125L111.409 57.8307C110.449 57.5502 110.449 56.1915 111.409 55.9111L120.237 53.3292C120.564 53.2335 120.82 52.9775 120.916 52.6501L123.498 43.8218ZM94.7967 60.1528C94.5163 59.1937 93.1576 59.1937 92.8772 60.1528L91.6811 64.2428C91.5853 64.5701 91.3293 64.8261 91.0019 64.9219L86.912 66.118C85.9529 66.3984 85.9529 67.7571 86.912 68.0376L91.0019 69.2336C91.3293 69.3294 91.5853 69.5854 91.6811 69.9128L92.8772 74.0027C93.1576 74.9618 94.5163 74.9618 94.7967 74.0027L95.9928 69.9128C96.0886 69.5854 96.3446 69.3294 96.6719 69.2336L100.762 68.0376C101.721 67.7571 101.721 66.3984 100.762 66.118L96.6719 64.9219C96.3446 64.8261 96.0886 64.5701 95.9928 64.2428L94.7967 60.1528Z" fill="white"/>
<path d="M179.76 91.952V92.72H186.992C187.461 92.72 187.867 92.8907 188.208 93.232C188.549 93.5733 188.72 93.9787 188.72 94.448V102.192C188.72 102.661 188.549 103.067 188.208 103.408C187.867 103.749 187.461 103.92 186.992 103.92H179.76V124.272C179.76 124.741 179.589 125.147 179.248 125.488C178.907 125.829 178.501 126 178.032 126H166.832C166.363 126 165.957 125.829 165.616 125.488C165.275 125.147 165.104 124.741 165.104 124.272V103.92H160.688C160.219 103.92 159.813 103.749 159.472 103.408C159.131 103.067 158.96 102.661 158.96 102.192V94.448C158.96 93.9787 159.131 93.5733 159.472 93.232C159.813 92.8907 160.219 92.72 160.688 92.72H165.104V91.632C165.104 86.768 166.576 83.3973 169.52 81.52C172.464 79.6 176.539 78.64 181.744 78.64H187.696C188.165 78.64 188.571 78.8107 188.912 79.152C189.253 79.4933 189.424 79.8987 189.424 80.368V88.112C189.424 88.5813 189.253 88.9867 188.912 89.328C188.571 89.6693 188.165 89.84 187.696 89.84H182.512C180.677 89.84 179.76 90.544 179.76 91.952ZM192.928 111.536V107.184C192.928 102.32 194.656 98.5867 198.112 95.984C201.568 93.3813 206.026 92.08 211.488 92.08C216.949 92.08 221.408 93.3813 224.864 95.984C228.32 98.5867 230.048 102.32 230.048 107.184V111.536C230.048 116.443 228.384 120.197 225.056 122.8C221.728 125.36 217.205 126.64 211.488 126.64C205.77 126.64 201.248 125.36 197.92 122.8C194.592 120.197 192.928 116.443 192.928 111.536ZM214.368 112.048V106.672C214.368 105.051 214.154 103.92 213.728 103.28C213.301 102.64 212.554 102.32 211.488 102.32C210.421 102.32 209.674 102.64 209.248 103.28C208.821 103.92 208.608 105.051 208.608 106.672V112.048C208.608 113.755 208.821 114.907 209.248 115.504C209.674 116.101 210.421 116.4 211.488 116.4C212.554 116.4 213.301 116.08 213.728 115.44C214.154 114.8 214.368 113.669 214.368 112.048ZM234.553 110.064V106.8C234.553 102.021 235.833 98.3733 238.393 95.856C240.953 93.3387 244.217 92.08 248.185 92.08C252.153 92.08 255.289 93.5307 257.593 96.432V94.448C257.593 93.9787 257.763 93.5733 258.105 93.232C258.446 92.8907 258.851 92.72 259.321 92.72H270.521C270.99 92.72 271.395 92.8907 271.737 93.232C272.078 93.5733 272.249 93.9787 272.249 94.448L272.312 124.912C272.312 130.032 270.649 133.829 267.321 136.304C263.993 138.821 259.619 140.08 254.201 140.08C250.83 140.08 247.822 139.611 245.177 138.672C242.531 137.776 240.547 136.667 239.225 135.344C236.537 132.699 235.193 130.459 235.193 128.624C235.193 128.155 235.363 127.749 235.705 127.408C236.046 127.067 236.451 126.896 236.921 126.896H249.401C250.169 126.896 250.787 127.365 251.257 128.304C251.769 129.285 252.643 129.776 253.881 129.776C255.715 129.776 256.633 128.624 256.633 126.32V121.776C254.542 123.611 251.577 124.528 247.737 124.528C243.939 124.528 240.782 123.376 238.265 121.072C235.79 118.768 234.553 115.099 234.553 110.064ZM253.433 113.392C255.438 113.392 256.505 112.325 256.633 110.192V106.736C256.505 104.603 255.438 103.536 253.433 103.536C251.299 103.536 250.233 104.773 250.233 107.248V109.68C250.233 112.155 251.299 113.392 253.433 113.392ZM277.74 110.064V106.8C277.74 102.021 279.02 98.3733 281.58 95.856C284.14 93.3387 287.404 92.08 291.372 92.08C295.34 92.08 298.476 93.5307 300.78 96.432V94.448C300.78 93.9787 300.951 93.5733 301.292 93.232C301.633 92.8907 302.039 92.72 302.508 92.72H313.708C314.177 92.72 314.583 92.8907 314.924 93.232C315.265 93.5733 315.436 93.9787 315.436 94.448L315.5 124.912C315.5 130.032 313.836 133.829 310.508 136.304C307.18 138.821 302.807 140.08 297.388 140.08C294.017 140.08 291.009 139.611 288.364 138.672C285.719 137.776 283.735 136.667 282.412 135.344C279.724 132.699 278.38 130.459 278.38 128.624C278.38 128.155 278.551 127.749 278.892 127.408C279.233 127.067 279.639 126.896 280.108 126.896H292.588C293.356 126.896 293.975 127.365 294.444 128.304C294.956 129.285 295.831 129.776 297.068 129.776C298.903 129.776 299.82 128.624 299.82 126.32V121.776C297.729 123.611 294.764 124.528 290.924 124.528C287.127 124.528 283.969 123.376 281.452 121.072C278.977 118.768 277.74 115.099 277.74 110.064ZM296.62 113.392C298.625 113.392 299.692 112.325 299.82 110.192V106.736C299.692 104.603 298.625 103.536 296.62 103.536C294.487 103.536 293.42 104.773 293.42 107.248V109.68C293.42 112.155 294.487 113.392 296.62 113.392ZM321.248 92.72H332.064C333.045 92.72 333.728 93.232 334.112 94.256L339.36 108.848L344.8 94.256C345.226 93.232 345.952 92.72 346.976 92.72H357.664C358.048 92.72 358.389 92.8693 358.688 93.168C358.986 93.424 359.136 93.7013 359.136 94C359.136 94.2987 359.114 94.5333 359.072 94.704L341.024 136.624C340.597 137.648 339.85 138.16 338.784 138.16H328.288C327.904 138.16 327.562 138.032 327.264 137.776C327.008 137.52 326.88 137.2 326.88 136.816C326.88 136.475 326.901 136.261 326.944 136.176L332.064 123.888L319.712 94.704C319.669 94.576 319.648 94.4267 319.648 94.256C319.818 93.232 320.352 92.72 321.248 92.72Z" fill="white"/>
</svg>
