<?xml version="1.0" encoding="iso-8859-1"?>
<!-- Generator: Adobe Illustrator 22.1.0, SVG Export Plug-In . SVG Version: 6.00 Build 0)  -->
<svg version="1.1" id="Layer_1" xmlns="http://www.w3.org/2000/svg" xmlns:xlink="http://www.w3.org/1999/xlink" x="0px" y="0px"
	 viewBox="0 0 48 48" style="enable-background:new 0 0 48 48;" xml:space="preserve">
<path style="fill:none;stroke:#AA99B9;stroke-width:3;stroke-linejoin:round;stroke-miterlimit:10;" d="M42.312,21.5H24.5v6h11.494
	c-1.515,5.198-6.307,9-11.994,9c-6.904,0-12.5-5.596-12.5-12.5S17.096,11.5,24,11.5c3.171,0,6.051,1.197,8.254,3.143l4.244-4.243
	C33.209,7.365,28.829,5.5,24,5.5C13.783,5.5,5.5,13.783,5.5,24S13.783,42.5,24,42.5S42.5,34.217,42.5,24
	C42.5,23.15,42.423,22.32,42.312,21.5z"/>
<line style="fill:none;stroke:#AA99B9;stroke-width:3;stroke-linejoin:round;stroke-miterlimit:10;" x1="12.782" y1="18.48" x2="7.953" y2="14.788"/>
<line style="fill:none;stroke:#AA99B9;stroke-width:3;stroke-linejoin:round;stroke-miterlimit:10;" x1="7.953" y1="33.212" x2="12.782" y2="29.52"/>
<line style="fill:none;stroke:#AA99B9;stroke-width:3;stroke-linejoin:round;stroke-miterlimit:10;" x1="36.998" y1="37.165" x2="32.439" y2="33.214"/>
</svg>